<svg width="32" height="32" fill="none" xmlns="http://www.w3.org/2000/svg"><path d="M29.333 12h-6.387l-5.84-8.747A1.35 1.35 0 0016 2.667c-.427 0-.854.213-1.107.6L9.053 12H2.666c-.733 0-1.333.6-1.333 1.333 0 .12 0 .24.053.36l3.387 12.36A2.652 2.652 0 007.333 28h17.333a2.68 2.68 0 002.574-1.947l3.386-12.36.04-.36c0-.733-.6-1.333-1.333-1.333zM16 6.4l3.733 5.6h-7.467L16 6.4zm8.666 18.933H7.333l-2.92-10.666H27.6l-2.934 10.666z" fill="#006244"/><path d="M16 17.333A2.674 2.674 0 0013.333 20c0 1.467 1.2 2.667 2.667 2.667 1.467 0 2.667-1.2 2.667-2.667 0-1.467-1.2-2.667-2.667-2.667z" fill="#F53838"/></svg>