<svg xmlns="http://www.w3.org/2000/svg" width="180" height="48" fill="none"><path d="M56.1 37H40.9a.91.91 0 01-.9-.899V13.899a.91.91 0 01.9-.899h15.2c.49 0 .9.41.9.899v2.697a.91.91 0 01-.9.9H45.556a.442.442 0 00-.45.449v4.182c0 .254.195.45.45.45h10.29c.489 0 .9.41.9.899v2.697a.91.91 0 01-.9.899h-10.29a.442.442 0 00-.45.45v4.533c0 .254.195.45.45.45H56.1c.49 0 .9.41.9.899V36.1c0 .508-.41.899-.9.899zm8.114 0h-2.428c-.427 0-.786-.41-.786-.899V13.899c0-.489.359-.899.786-.899h2.428c.427 0 .786.41.786.899v22.202c0 .508-.359.899-.786.899zm20.872 0h-3.432a.883.883 0 01-.737-.39l-3.995-5.845c-.155-.234-.504-.254-.698-.058l-1.57 1.7a.446.446 0 00-.117.313v3.38a.906.906 0 01-.892.899h-2.753A.906.906 0 0170 36.1V13.899c0-.489.407-.899.892-.899h2.773c.485 0 .892.41.892.899v12.235c0 .41.523.605.795.293l5.487-6.489a.926.926 0 01.68-.313h3.198c.776 0 1.183.919.68 1.486l-5.294 6.117a.445.445 0 00-.02.567l5.76 7.778c.406.587-.02 1.427-.757 1.427zM91 17.518a3.096 3.096 0 01-2.121-.81c-.6-.554-.879-1.187-.879-1.959 0-.751.3-1.404.879-1.938A3.057 3.057 0 0191 12c.836 0 1.543.277 2.121.81.579.535.879 1.188.879 1.94 0 .75-.3 1.404-.879 1.957-.557.534-1.285.811-2.121.811zM92.543 37H89.5c-.536 0-.986-.415-.986-.91V20.327c0-.495.45-.91.986-.91h3.043c.536 0 .986.415.986.91V36.11c0 .494-.45.89-.986.89zm9.571-.886c-.584.584-1.288.886-2.114.886-.826 0-1.53-.302-2.114-.886C97.302 35.53 97 34.826 97 34c0-.825.302-1.51.886-2.114C98.47 31.302 99.174 31 100 31c.826 0 1.51.302 2.114.886.584.584.886 1.289.886 2.114s-.302 1.53-.886 2.114zm12.498.886c-3.846 0-6.95-1.04-9.311-3.14a.85.85 0 01-.134-1.153l1.676-2.326a.885.885 0 011.295-.133c1.866 1.627 4.113 2.459 6.722 2.459 1.295 0 2.285-.246 2.989-.757.705-.491 1.067-1.116 1.067-1.834 0-.624-.324-1.154-.99-1.57-.667-.416-1.505-.719-2.495-.908a34.82 34.82 0 01-3.237-.794 23.93 23.93 0 01-3.237-1.192c-.99-.434-1.828-1.134-2.495-2.099-.666-.945-.99-2.118-.99-3.48 0-2.004.8-3.669 2.418-5.03 1.619-1.362 3.771-2.043 6.456-2.043 3.389 0 6.207.889 8.473 2.686a.866.866 0 01.153 1.21l-1.714 2.232a.885.885 0 01-1.238.151c-1.714-1.305-3.751-1.967-6.112-1.967-.762 0-1.39.113-1.904.322-.572.245-.991.7-1.238 1.248-.4.908-.134 1.626.819 2.175.666.378 1.504.662 2.494.85a30.351 30.351 0 016.436 2.024c.99.454 1.828 1.154 2.495 2.119.666.964.99 2.118.99 3.46 0 2.232-.8 4.029-2.399 5.39-1.638 1.42-3.961 2.1-6.989 2.1zm26.88-.424h-3.251c-.272 0-.49-.231-.49-.52v-1.253c-1.163 1.465-2.87 2.197-5.121 2.197-1.453 0-2.743-.501-3.905-1.503-1.144-1.002-1.725-2.39-1.725-4.163 0-1.85.563-3.238 1.689-4.163 1.126-.925 2.433-1.387 3.922-1.387 1.871 0 3.36.462 4.431 1.387.273.232.672.039.672-.347v-1.252c0-.867-.327-1.58-.962-2.1-.654-.521-1.507-.791-2.579-.791-1.58 0-2.996.54-4.267 1.619a.487.487 0 01-.745-.154l-1.071-2.063a.553.553 0 01.109-.674c1.852-1.6 4.104-2.409 6.737-2.409 2.07 0 3.759.501 5.085 1.523 1.307 1.02 1.979 2.678 1.979 4.972v10.541c0 .309-.236.54-.508.54zm-7.155-2.621c1.507 0 2.615-.462 3.323-1.368a.496.496 0 00.091-.29v-1.81a.545.545 0 00-.091-.29c-.69-.906-1.798-1.368-3.323-1.368-.872 0-1.599.231-2.18.694-.581.462-.871 1.098-.871 1.907 0 .79.29 1.388.871 1.85.581.444 1.308.675 2.18.675zM150.214 37h-2.428c-.427 0-.786-.41-.786-.899V13.899c0-.489.359-.899.786-.899h2.428c.427 0 .786.41.786.899v22.202c0 .508-.359.899-.786.899zm13.699 0c-2.59 0-4.71-.829-6.399-2.486-1.688-1.658-2.514-3.835-2.514-6.533 0-2.525.807-4.664 2.439-6.399 1.633-1.734 3.697-2.582 6.211-2.582 2.496 0 4.503.867 6.042 2.602 1.539 1.734 2.308 4.008 2.308 6.841v.116c0 .482-.394.886-.863.886h-11.54c.131 1.137.638 2.082 1.482 2.833.845.752 1.952 1.137 3.322 1.137.731 0 1.538-.154 2.401-.462a6.055 6.055 0 001.408-.694.837.837 0 011.182.25l.957 1.446a.902.902 0 01-.188 1.214c-1.614 1.234-3.696 1.831-6.248 1.831zm3.828-10.6c-.075-.963-.451-1.85-1.126-2.62-.676-.79-1.67-1.176-2.984-1.176-1.238 0-2.214.385-2.908 1.156a4.663 4.663 0 00-1.201 2.64h8.219z" fill="#fff"/><path d="M28.361 47c-.103 0-.18 0-.282-.026l-25.693-4.38A1.655 1.655 0 011 40.97c-.026-.8.538-1.495 1.333-1.675l14.54-3.016-10.95-2.55c-.744-.181-1.282-.851-1.282-1.599 0-.773.513-1.443 1.256-1.649l9.257-2.422-6.205-1.882a1.685 1.685 0 01-1.18-1.597c0-.748.488-1.392 1.18-1.598l5.795-1.752-3.36-2.165a1.693 1.693 0 01-.768-1.547 1.627 1.627 0 011.025-1.391l1.667-.696-.538-.541a1.678 1.678 0 01-.052-2.37 1.658 1.658 0 012.36-.053l2.358 2.294c.41.387.59.954.488 1.52a1.647 1.647 0 01-1 1.238l-1.077.463 3.743 2.423c.539.36.846 1.005.744 1.65-.103.643-.538 1.185-1.18 1.365l-3.974 1.185 6.616 2.01a1.641 1.641 0 011.18 1.65 1.677 1.677 0 01-1.257 1.598l-8.411 2.164 11.744 2.732c.77.18 1.308.876 1.282 1.65 0 .798-.564 1.468-1.333 1.623l-13.334 2.757 16.95 2.887a1.684 1.684 0 011.358 1.932c-.102.825-.82 1.392-1.615 1.392z" fill="#98DC9A"/><path d="M14.5 8a2.5 2.5 0 100-5 2.5 2.5 0 000 5zm29.302 0a2.5 2.5 0 100-5 2.5 2.5 0 000 5zm8 0a2.5 2.5 0 100-5 2.5 2.5 0 000 5z" fill="#EF3737"/></svg>