<svg width="22" height="33" fill="none" xmlns="http://www.w3.org/2000/svg"><path d="M20.757 33c-.078 0-.137 0-.214-.02L1.05 29.696A1.245 1.245 0 010 28.478c-.02-.599.408-1.12 1.011-1.256l11.03-2.261-8.306-1.914c-.565-.135-.973-.638-.973-1.198 0-.58.389-1.082.953-1.237l7.023-1.817-4.708-1.41a1.266 1.266 0 01-.895-1.2c0-.56.37-1.043.895-1.198l4.396-1.314L7.88 12.05a1.265 1.265 0 01-.584-1.16c.04-.464.331-.87.778-1.044l1.265-.522-.409-.406a1.249 1.249 0 01-.04-1.778 1.268 1.268 0 011.79-.038l1.79 1.72c.311.29.447.715.37 1.14a1.24 1.24 0 01-.76.928l-.816.348 2.84 1.817c.408.27.642.753.564 1.237a1.25 1.25 0 01-.895 1.024l-3.015.89 5.019 1.507c.544.154.914.657.895 1.237a1.26 1.26 0 01-.954 1.198l-6.38 1.623 8.91 2.05c.583.135.991.656.972 1.236 0 .6-.428 1.102-1.012 1.218L8.093 28.342l12.858 2.165a1.265 1.265 0 011.031 1.45c-.078.618-.622 1.043-1.225 1.043z" fill="#98DC9A"/><path d="M10.241 3.75c1.048 0 1.897-.84 1.897-1.875C12.138.839 11.288 0 10.24 0 9.194 0 8.345.84 8.345 1.875c0 1.036.849 1.875 1.896 1.875z" fill="#EF3737"/></svg>