<svg width="60" height="60" viewBox="0 0 60 60" fill="none" xmlns="http://www.w3.org/2000/svg">
<path d="M37.5 10C34.8478 10 32.3043 11.0536 30.4289 12.9289C28.5536 14.8043 27.5 17.3478 27.5 20C27.5 22.6522 28.5536 25.1957 30.4289 27.0711C32.3043 28.9464 34.8478 30 37.5 30C40.1522 30 42.6957 28.9464 44.5711 27.0711C46.4464 25.1957 47.5 22.6522 47.5 20C47.5 17.3478 46.4464 14.8043 44.5711 12.9289C42.6957 11.0536 40.1522 10 37.5 10ZM37.5 25.25C36.1076 25.25 34.7723 24.6969 33.7877 23.7123C32.8031 22.7277 32.25 21.3924 32.25 20C32.25 18.6076 32.8031 17.2723 33.7877 16.2877C34.7723 15.3031 36.1076 14.75 37.5 14.75C40.4 14.75 42.75 17.1 42.75 20C42.75 22.9 40.4 25.25 37.5 25.25ZM37.5 32.5C30.825 32.5 17.5 35.825 17.5 42.5V50H57.5V42.5C57.5 35.825 44.175 32.5 37.5 32.5ZM52.75 45.25H22.25V42.5C22.25 40.9 30 37.25 37.5 37.25C44.925 37.25 52.75 40.9 52.75 42.5V45.25Z" fill="#006244"/>
<path d="M12.5 37.5001L11 36.2501C6 31.5001 2.5 28.5001 2.5 24.7501C2.5 21.7501 5 19.2501 8 19.2501C9.75 19.2501 11.5 20.0001 12.5 21.2501C13.5 20.0001 15.25 19.2501 17 19.2501C20 19.2501 22.5 21.5001 22.5 24.7501C22.5 28.5001 19 31.5001 14 36.2501L12.5 37.5001Z" fill="#F53838"/>
</svg>
