<!-- Generated by IcoMoon.io -->
<svg version="1.1" xmlns="http://www.w3.org/2000/svg" width="1138" height="1024" viewBox="0 0 1138 1024">
<title></title>
<g id="icomoon-ignore">
</g>
<path d="M568.889 398.222l-53.476 117.191-117.191 53.476 117.191 53.476 53.476 117.191 53.476-117.191 117.191-53.476-117.191-53.476-53.476-117.191zM1024 113.778h-180.338l-104.107-113.778h-341.333l-104.107 113.778h-180.338c-30.176 0-59.116 11.987-80.453 33.325s-33.325 50.277-33.325 80.453v682.667c0 30.174 11.987 59.113 33.325 80.452s50.277 33.326 80.453 33.326h910.222c30.174 0 59.113-11.986 80.452-33.326s33.326-50.278 33.326-80.452v-682.667c0-30.176-11.986-59.116-33.326-80.453s-50.278-33.325-80.452-33.325zM1024 910.222h-910.222v-682.667h230.4l33.564-36.978 70.542-76.8h241.209l70.542 76.8 33.564 36.978h230.4v682.667zM568.889 284.444c-75.439 0-147.789 29.968-201.132 83.312s-83.312 125.693-83.312 201.132c0 75.44 29.968 147.792 83.312 201.131 53.344 53.345 125.693 83.314 201.132 83.314s147.792-29.969 201.131-83.314c53.345-53.339 83.314-125.69 83.314-201.131 0-75.439-29.969-147.789-83.314-201.132-53.339-53.344-125.69-83.312-201.131-83.312zM568.889 739.556c-45.264 0-88.673-17.983-120.68-49.988s-49.987-75.418-49.987-120.678c0-45.264 17.981-88.673 49.987-120.68s75.416-49.987 120.68-49.987c45.261 0 88.673 17.981 120.678 49.987s49.988 75.416 49.988 120.68c0 45.261-17.983 88.673-49.988 120.678s-75.418 49.988-120.678 49.988z"></path>
</svg>
