<svg width="60" height="60" viewBox="0 0 60 60" fill="none" xmlns="http://www.w3.org/2000/svg">
<path d="M30 32.5C27.25 32.5 25 34.75 25 37.5C25 40.25 27.25 42.5 30 42.5C32.75 42.5 35 40.25 35 37.5C35 34.75 32.75 32.5 30 32.5ZM33.375 52.5H13.75C11.45 52.5 9.525 50.95 8.95 48.85L2.6 25.675C2.5 25.45 2.5 25.225 2.5 25C2.5 23.625 3.625 22.5 5 22.5H16.975L27.925 6.125C28.4 5.4 29.2 5 30 5C30.8 5 31.6 5.4 32.075 6.1L43.025 22.5H55C56.375 22.5 57.5 23.625 57.5 25L57.425 25.675L55 34.525C53.575 33.75 51.975 33.1 50.3 32.775L51.75 27.5H8.275L13.75 47.5H32.5C32.5 49.25 32.825 50.925 33.375 52.5ZM23 22.5H37L30 12L23 22.5Z" fill="#006244"/>
<path d="M50 37.5V45H57.5V50H50V57.5H45V50H37.5V45H45V37.5H50Z" fill="#F53838"/>
</svg>
