<svg width="32" height="32" viewBox="0 0 32 32" fill="none" xmlns="http://www.w3.org/2000/svg">
<path d="M29.333 12.0001H22.9463L17.1063 3.25341C16.853 2.88008 16.4263 2.66675 15.9997 2.66675C15.573 2.66675 15.1463 2.88008 14.893 3.26675L9.05301 12.0001H2.66634C1.93301 12.0001 1.33301 12.6001 1.33301 13.3334C1.33301 13.4534 1.33301 13.5734 1.38634 13.6934L4.77301 26.0534C5.07967 27.1734 6.10634 28.0001 7.33301 28.0001H24.6663C25.893 28.0001 26.9197 27.1734 27.2397 26.0534L30.6263 13.6934L30.6663 13.3334C30.6663 12.6001 30.0663 12.0001 29.333 12.0001ZM15.9997 6.40008L19.733 12.0001H12.2663L15.9997 6.40008ZM24.6663 25.3334H7.33301L4.41301 14.6667H27.5997L24.6663 25.3334Z" fill="#006244"/>
<path d="M15.9999 17.3333C14.5333 17.3333 13.3333 18.5333 13.3333 19.9999C13.3333 21.4666 14.5333 22.6666 15.9999 22.6666C17.4666 22.6666 18.6666 21.4666 18.6666 19.9999C18.6666 18.5333 17.4666 17.3333 15.9999 17.3333Z" fill="#F53838"/>
</svg>
