<!-- Generated by IcoMoon.io -->
<svg version="1.1" xmlns="http://www.w3.org/2000/svg" width="1024" height="1024" viewBox="0 0 1024 1024">
<title></title>
<g id="icomoon-ignore">
</g>
<path d="M819.2 819.2c27.156 0 53.202 10.788 72.407 29.993s29.993 45.251 29.993 72.407c0 27.156-10.788 53.202-29.993 72.407s-45.251 29.993-72.407 29.993c-56.832 0-102.4-46.080-102.4-102.4 0-56.832 45.568-102.4 102.4-102.4zM0 0h167.424l48.128 102.4h757.248c13.578 0 26.604 5.394 36.204 14.996s14.996 22.625 14.996 36.204c0 8.704-2.56 17.408-6.144 25.6l-183.296 331.264c-17.408 31.232-51.2 52.736-89.6 52.736h-381.44l-46.080 83.456-1.536 6.144c0 3.395 1.349 6.651 3.749 9.052s5.657 3.748 9.051 3.748h592.896v102.4h-614.4c-56.832 0-102.4-46.080-102.4-102.4 0-17.92 4.608-34.816 12.288-49.152l69.632-125.44-184.32-388.608h-102.4v-102.4zM307.2 819.2c27.158 0 53.204 10.788 72.408 29.993s29.992 45.251 29.992 72.407c0 27.156-10.788 53.202-29.992 72.407s-45.25 29.993-72.408 29.993c-56.832 0-102.4-46.080-102.4-102.4 0-56.832 45.568-102.4 102.4-102.4zM768 460.8l142.336-256h-647.168l120.832 256h384z"></path>
</svg>
