<svg width="60" height="60" viewBox="0 0 60 60" fill="none" xmlns="http://www.w3.org/2000/svg">
<path d="M5 5H13.175L15.525 10H52.5C53.163 10 53.7989 10.2634 54.2678 10.7322C54.7366 11.2011 55 11.837 55 12.5C55 12.925 54.875 13.35 54.7 13.75L45.75 29.925C44.9 31.45 43.25 32.5 41.375 32.5H22.75L20.5 36.575L20.425 36.875C20.425 37.0408 20.4908 37.1997 20.6081 37.3169C20.7253 37.4342 20.8842 37.5 21.05 37.5H50V42.5H20C17.225 42.5 15 40.25 15 37.5C15 36.625 15.225 35.8 15.6 35.1L19 28.975L10 10H5V5ZM42.5 27.5L49.45 15H17.85L23.75 27.5H42.5Z" fill="#006244"/>
<path d="M45 45C46.3261 45 47.5979 45.5268 48.5355 46.4645C49.4732 47.4021 50 48.6739 50 50C50 51.3261 49.4732 52.5978 48.5355 53.5355C47.5979 54.4732 46.3261 55 45 55C42.225 55 40 52.75 40 50C40 47.225 42.225 45 45 45ZM20 45C21.3261 45 22.5979 45.5268 23.5355 46.4645C24.4732 47.4021 25 48.6739 25 50C25 51.3261 24.4732 52.5978 23.5355 53.5355C22.5979 54.4732 21.3261 55 20 55C17.225 55 15 52.75 15 50C15 47.225 17.225 45 20 45Z" fill="#F53838"/>
</svg>
