<svg width="60" height="60" viewBox="0 0 60 60" fill="none" xmlns="http://www.w3.org/2000/svg">
<path d="M12.5 15H57.5V45H12.5V15ZM35 22.5C36.9891 22.5 38.8968 23.2902 40.3033 24.6967C41.7098 26.1032 42.5 28.0109 42.5 30C42.5 31.9891 41.7098 33.8968 40.3033 35.3033C38.8968 36.7098 36.9891 37.5 35 37.5C33.0109 37.5 31.1032 36.7098 29.6967 35.3033C28.2902 33.8968 27.5 31.9891 27.5 30C27.5 28.0109 28.2902 26.1032 29.6967 24.6967C31.1032 23.2902 33.0109 22.5 35 22.5ZM22.5 20C22.5 21.3261 21.9732 22.5979 21.0355 23.5355C20.0978 24.4732 18.8261 25 17.5 25V35C18.8261 35 20.0978 35.5268 21.0355 36.4645C21.9732 37.4021 22.5 38.6739 22.5 40H47.5C47.5 38.6739 48.0268 37.4021 48.9645 36.4645C49.9021 35.5268 51.1739 35 52.5 35V25C51.1739 25 49.9021 24.4732 48.9645 23.5355C48.0268 22.5979 47.5 21.3261 47.5 20H22.5ZM2.5 25H7.5V50H47.5V55H2.5V25Z" fill="#006244"/>
<path d="M35 22.5C36.9891 22.5 38.8968 23.2902 40.3033 24.6967C41.7098 26.1032 42.5 28.0109 42.5 30C42.5 31.9891 41.7098 33.8968 40.3033 35.3033C38.8968 36.7098 36.9891 37.5 35 37.5C33.0109 37.5 31.1032 36.7098 29.6967 35.3033C28.2902 33.8968 27.5 31.9891 27.5 30C27.5 28.0109 28.2902 26.1032 29.6967 24.6967C31.1032 23.2902 33.0109 22.5 35 22.5Z" fill="#F53838"/>
</svg>
