<svg width="12" height="12" viewBox="0 0 12 12" fill="none" xmlns="http://www.w3.org/2000/svg">
<path d="M2.4 1.2C2.4 1.86274 1.86274 2.4 1.2 2.4C0.537258 2.4 0 1.86274 0 1.2C0 0.537258 0.537258 0 1.2 0C1.86274 0 2.4 0.537258 2.4 1.2Z" fill="black"/>
<path d="M2.4 10.8C2.4 11.4627 1.86274 12 1.2 12C0.537258 12 0 11.4627 0 10.8C0 10.1373 0.537258 9.6 1.2 9.6C1.86274 9.6 2.4 10.1373 2.4 10.8Z" fill="black"/>
<path d="M2.4 6C2.4 6.66274 1.86274 7.2 1.2 7.2C0.537258 7.2 0 6.66274 0 6C0 5.33726 0.537258 4.8 1.2 4.8C1.86274 4.8 2.4 5.33726 2.4 6Z" fill="black"/>
<path d="M12 1.2C12 1.86274 11.4627 2.4 10.8 2.4C10.1373 2.4 9.6 1.86274 9.6 1.2C9.6 0.537258 10.1373 0 10.8 0C11.4627 0 12 0.537258 12 1.2Z" fill="black"/>
<path d="M12 10.8C12 11.4627 11.4627 12 10.8 12C10.1373 12 9.6 11.4627 9.6 10.8C9.6 10.1373 10.1373 9.6 10.8 9.6C11.4627 9.6 12 10.1373 12 10.8Z" fill="black"/>
<path d="M12 6C12 6.66274 11.4627 7.2 10.8 7.2C10.1373 7.2 9.6 6.66274 9.6 6C9.6 5.33726 10.1373 4.8 10.8 4.8C11.4627 4.8 12 5.33726 12 6Z" fill="black"/>
<path d="M7.2 1.2C7.2 1.86274 6.66274 2.4 6 2.4C5.33726 2.4 4.8 1.86274 4.8 1.2C4.8 0.537258 5.33726 0 6 0C6.66274 0 7.2 0.537258 7.2 1.2Z" fill="black"/>
<path d="M7.2 10.8C7.2 11.4627 6.66274 12 6 12C5.33726 12 4.8 11.4627 4.8 10.8C4.8 10.1373 5.33726 9.6 6 9.6C6.66274 9.6 7.2 10.1373 7.2 10.8Z" fill="black"/>
<path d="M7.2 6C7.2 6.66274 6.66274 7.2 6 7.2C5.33726 7.2 4.8 6.66274 4.8 6C4.8 5.33726 5.33726 4.8 6 4.8C6.66274 4.8 7.2 5.33726 7.2 6Z" fill="black"/>
</svg>
