<!-- Generated by IcoMoon.io -->
<svg version="1.1" xmlns="http://www.w3.org/2000/svg" width="1067" height="1024" viewBox="0 0 1067 1024">
<title></title>
<g id="icomoon-ignore">
</g>
<path d="M361.027 512h341.51v85.333h-341.51v-85.333zM446.404 853.333h-170.756v-682.667h298.824v213.333h213.444v132.267l85.376-85.333v-89.6l-256.132-256h-341.512c-22.643 0-44.36 8.99-60.371 24.994s-25.007 37.708-25.007 60.34v682.667c0 22.63 8.995 44.335 25.007 60.339s37.728 24.994 60.371 24.994h170.756v-85.333zM361.027 768h175.025l38.421-38.4v-46.933h-213.446v85.333zM881.83 554.667c4.271 0 12.809 4.267 17.075 8.533l55.497 55.467c8.538 8.533 8.538 25.6 0 34.133l-42.688 42.667-89.647-89.6 42.688-42.667c4.271-4.267 8.538-8.533 17.075-8.533zM881.83 721.067l-260.403 260.267h-89.647v-89.6l260.403-260.267 89.647 89.6z"></path>
</svg>
