<svg width="48" height="48" viewBox="0 0 48 48" fill="none" xmlns="http://www.w3.org/2000/svg">
<rect width="48" height="48" rx="24" fill="url(#paint0_radial)"/>
<g filter="url(#filter0_dd)">
<path d="M25.4297 12.1974V18.0534C25.4297 18.8818 24.7581 19.5534 23.9297 19.5534H8C7.72386 19.5534 7.5 19.7772 7.5 20.0534V27.9335C7.5 28.2096 7.72386 28.4335 8 28.4335H23.9297C24.7581 28.4335 25.4297 29.1051 25.4297 29.9335V35.8026C25.4297 36.2316 25.9346 36.4614 26.2581 36.1796L39.8061 24.377C40.0348 24.1777 40.0348 23.8223 39.8061 23.623L26.2581 11.8204C25.9346 11.5386 25.4297 11.7684 25.4297 12.1974Z" stroke="#FFEFEF"/>
<path d="M25.4297 12.1974V18.0534C25.4297 18.8818 24.7581 19.5534 23.9297 19.5534H8C7.72386 19.5534 7.5 19.7772 7.5 20.0534V27.9335C7.5 28.2096 7.72386 28.4335 8 28.4335H23.9297C24.7581 28.4335 25.4297 29.1051 25.4297 29.9335V35.8026C25.4297 36.2316 25.9346 36.4614 26.2581 36.1796L39.8061 24.377C40.0348 24.1777 40.0348 23.8223 39.8061 23.623L26.2581 11.8204C25.9346 11.5386 25.4297 11.7684 25.4297 12.1974Z" stroke="url(#paint1_linear)"/>
</g>
<defs>
<filter id="filter0_dd" x="3" y="9.19531" width="41.4776" height="33.609" filterUnits="userSpaceOnUse" color-interpolation-filters="sRGB">
<feFlood flood-opacity="0" result="BackgroundImageFix"/>
<feColorMatrix in="SourceAlpha" type="matrix" values="0 0 0 0 0 0 0 0 0 0 0 0 0 0 0 0 0 0 127 0"/>
<feOffset dy="2"/>
<feGaussianBlur stdDeviation="2"/>
<feColorMatrix type="matrix" values="0 0 0 0 1 0 0 0 0 0 0 0 0 0 0 0 0 0 0.78 0"/>
<feBlend mode="normal" in2="BackgroundImageFix" result="effect1_dropShadow"/>
<feColorMatrix in="SourceAlpha" type="matrix" values="0 0 0 0 0 0 0 0 0 0 0 0 0 0 0 0 0 0 127 0"/>
<feOffset dy="2"/>
<feGaussianBlur stdDeviation="2"/>
<feColorMatrix type="matrix" values="0 0 0 0 1 0 0 0 0 0 0 0 0 0 0 0 0 0 1 0"/>
<feBlend mode="normal" in2="effect1_dropShadow" result="effect2_dropShadow"/>
<feBlend mode="normal" in="SourceGraphic" in2="effect2_dropShadow" result="shape"/>
</filter>
<radialGradient id="paint0_radial" cx="0" cy="0" r="1" gradientUnits="userSpaceOnUse" gradientTransform="translate(24 24) rotate(90) scale(24)">
<stop stop-color="#FF005C"/>
<stop offset="0.740626" stop-color="#2E0011"/>
<stop offset="1" stop-color="#170008"/>
</radialGradient>
<linearGradient id="paint1_linear" x1="24" y1="10" x2="24" y2="38" gradientUnits="userSpaceOnUse">
<stop stop-color="white"/>
<stop offset="1" stop-color="white" stop-opacity="0"/>
</linearGradient>
</defs>
</svg>
