<svg width="17" height="19" viewBox="0 0 17 19" fill="none" xmlns="http://www.w3.org/2000/svg">
<path d="M11.0003 16.88C11.0403 17.18 10.9403 17.5 10.7103 17.71C10.3203 18.1 9.69035 18.1 9.30035 17.71L5.29035 13.7C5.06035 13.47 4.96035 13.16 5.00035 12.87V7.75L0.210346 1.62C-0.129654 1.19 -0.049654 0.56 0.380346 0.22C0.570346 0.08 0.780346 0 1.00035 0H15.0003C15.2203 0 15.4303 0.08 15.6203 0.22C16.0503 0.56 16.1303 1.19 15.7903 1.62L11.0003 7.75V16.88ZM3.04035 2L7.00035 7.06V12.58L9.00035 14.58V7.05L12.9603 2H3.04035Z" fill="black"/>
</svg>
