<svg width="60" height="60" viewBox="0 0 60 60" fill="none" xmlns="http://www.w3.org/2000/svg">
<path d="M35.5 5.50001C35.5 8.53759 33.0376 11 30 11C26.9624 11 24.5 8.53759 24.5 5.50001C24.5 2.46244 26.9624 0 30 0C33.0376 0 35.5 2.46244 35.5 5.50001Z" fill="#F53838"/>
<path fill-rule="evenodd" clip-rule="evenodd" d="M21.6457 44.6876L29.9999 25.0498L38.3542 44.6876H21.6457ZM27.4694 16.9484C28.4186 14.7171 31.5813 14.7171 32.5305 16.9484L45.0431 46.3611C45.8147 48.1749 44.4837 50.1876 42.5126 50.1876H32.75V55.0002H27.25V50.1876H17.4873C15.5162 50.1876 14.1852 48.1749 14.9568 46.3611L27.4694 16.9484Z" fill="#006244"/>
</svg>
