<svg width="12" height="12" viewBox="0 0 12 12" fill="none" xmlns="http://www.w3.org/2000/svg">
<path d="M11 6V10C11 10.2652 10.8946 10.5196 10.7071 10.7071C10.5196 10.8946 10.2652 11 10 11H2C1.73478 11 1.48043 10.8946 1.29289 10.7071C1.10536 10.5196 1 10.2652 1 10V6C0.867392 6 0.740215 5.94732 0.646447 5.85355C0.552678 5.75979 0.5 5.63261 0.5 5.5V4C0.5 3.73478 0.605357 3.48043 0.792893 3.29289C0.98043 3.10536 1.23478 3 1.5 3H3.085C3.03 2.845 3 2.675 3 2.5C3 2.10218 3.15804 1.72064 3.43934 1.43934C3.72064 1.15804 4.10218 1 4.5 1C5 1 5.44 1.25 5.715 1.62V1.615L6 2L6.285 1.615V1.62C6.56 1.25 7 1 7.5 1C7.89782 1 8.27936 1.15804 8.56066 1.43934C8.84196 1.72064 9 2.10218 9 2.5C9 2.675 8.97 2.845 8.915 3H10.5C10.7652 3 11.0196 3.10536 11.2071 3.29289C11.3946 3.48043 11.5 3.73478 11.5 4V5.5C11.5 5.63261 11.4473 5.75979 11.3536 5.85355C11.2598 5.94732 11.1326 6 11 6ZM2 10H5.5V6H2V10ZM10 10V6H6.5V10H10ZM4.5 2C4.36739 2 4.24021 2.05268 4.14645 2.14645C4.05268 2.24021 4 2.36739 4 2.5C4 2.63261 4.05268 2.75979 4.14645 2.85355C4.24021 2.94732 4.36739 3 4.5 3C4.63261 3 4.75979 2.94732 4.85355 2.85355C4.94732 2.75979 5 2.63261 5 2.5C5 2.36739 4.94732 2.24021 4.85355 2.14645C4.75979 2.05268 4.63261 2 4.5 2ZM7.5 2C7.36739 2 7.24021 2.05268 7.14645 2.14645C7.05268 2.24021 7 2.36739 7 2.5C7 2.63261 7.05268 2.75979 7.14645 2.85355C7.24021 2.94732 7.36739 3 7.5 3C7.63261 3 7.75979 2.94732 7.85355 2.85355C7.94732 2.75979 8 2.63261 8 2.5C8 2.36739 7.94732 2.24021 7.85355 2.14645C7.75979 2.05268 7.63261 2 7.5 2ZM1.5 4V5H5.5V4H1.5ZM6.5 4V5H10.5V4H6.5Z" fill="white"/>
</svg>
