<!-- Generated by IcoMoon.io -->
<svg version="1.1" xmlns="http://www.w3.org/2000/svg" width="1024" height="1024" viewBox="0 0 1024 1024">
<title></title>
<g id="icomoon-ignore">
</g>
<path d="M426.667 810.667h128v128h-128v-128zM512 85.333c228.267 9.387 327.68 239.787 192 412.587-35.413 42.667-92.587 70.827-120.747 106.667-28.587 35.413-28.587 78.080-28.587 120.747h-128c0-71.253 0-131.413 28.587-174.080 28.16-42.667 85.333-67.84 120.747-96 103.253-95.573 77.653-230.827-64-241.92-33.947 0-66.505 13.486-90.51 37.49s-37.49 56.562-37.49 90.51h-128c0-67.895 26.971-133.010 74.981-181.019s113.124-74.981 181.019-74.981z"></path>
</svg>
