<svg width="22" height="33" viewBox="0 0 22 33" fill="none" xmlns="http://www.w3.org/2000/svg">
<path d="M20.7566 33C20.6788 33 20.6204 33 20.5426 32.9807L1.05108 29.6949C0.448048 29.5983 0.000637151 29.0764 0.000637151 28.4773C-0.0188155 27.8781 0.409142 27.3563 1.01217 27.221L12.0418 24.9596L3.73554 23.0461C3.17142 22.9108 2.76291 22.4083 2.76291 21.8478C2.76291 21.268 3.15196 20.7655 3.71609 20.6108L10.7385 18.794L6.03095 17.3831C5.50573 17.2284 5.13613 16.7259 5.13613 16.1847C5.13613 15.6242 5.50573 15.141 6.03095 14.9864L10.4272 13.6721L7.87895 12.0486C7.4899 11.7973 7.25647 11.3528 7.29537 10.8889C7.33428 10.425 7.62607 10.0191 8.07348 9.8452L9.3379 9.32334L8.92939 8.91746C8.42362 8.43426 8.40417 7.64182 8.89049 7.13929C9.3768 6.63677 10.1744 6.61744 10.6801 7.10064L12.4698 8.82082C12.781 9.11074 12.9172 9.53595 12.8394 9.96116C12.7616 10.3864 12.4698 10.7343 12.0807 10.8889L11.2637 11.2368L14.1038 13.0536C14.5123 13.3242 14.7457 13.8074 14.6679 14.2906C14.5901 14.7738 14.2594 15.1797 13.7731 15.315L10.7579 16.2041L15.7767 17.7116C16.3214 17.8663 16.691 18.3688 16.6715 18.9486C16.6521 19.5285 16.2825 19.9923 15.7184 20.147L9.3379 21.7705L18.2472 23.8193C18.8308 23.9546 19.2393 24.4764 19.2198 25.0562C19.2198 25.6554 18.7919 26.1579 18.2083 26.2739L8.09293 28.342L20.9511 30.5067C21.632 30.6227 22.0988 31.2798 21.9821 31.9563C21.9043 32.5748 21.3596 33 20.7566 33Z" fill="#98DC9A"/>
<path d="M10.2413 3.75C11.2887 3.75 12.1378 2.91053 12.1378 1.875C12.1378 0.839466 11.2887 0 10.2413 0C9.19384 0 8.34473 0.839466 8.34473 1.875C8.34473 2.91053 9.19384 3.75 10.2413 3.75Z" fill="#EF3737"/>
</svg>
