<svg width="231" height="48" viewBox="0 0 231 48" fill="none" xmlns="http://www.w3.org/2000/svg">
<path d="M56.1001 37H40.8999C40.4108 37 40 36.5896 40 36.101V13.899C40 13.4104 40.4108 13 40.8999 13H56.1001C56.5892 13 57 13.4104 57 13.899V16.5961C57 17.0847 56.5892 17.4951 56.1001 17.4951H45.5558C45.3015 17.4951 45.1059 17.6906 45.1059 17.9446V22.127C45.1059 22.3811 45.3015 22.5765 45.5558 22.5765H55.8458C56.3349 22.5765 56.7457 22.987 56.7457 23.4756V26.1726C56.7457 26.6612 56.3349 27.0717 55.8458 27.0717H45.5558C45.3015 27.0717 45.1059 27.2671 45.1059 27.5212V32.0554C45.1059 32.3094 45.3015 32.5049 45.5558 32.5049H56.1001C56.5892 32.5049 57 32.9153 57 33.4039V36.101C57 36.6091 56.5892 37 56.1001 37Z" fill="white"/>
<path d="M64.2137 37H61.7863C61.359 37 61 36.5896 61 36.101V13.899C61 13.4104 61.359 13 61.7863 13H64.2137C64.641 13 65 13.4104 65 13.899V36.101C65 36.6091 64.641 37 64.2137 37Z" fill="white"/>
<path d="M85.0859 37H81.6538C81.3629 37 81.0915 36.8632 80.917 36.6091L76.9225 30.7655C76.7673 30.5309 76.4183 30.5114 76.2244 30.7068L74.6538 32.4072C74.5762 32.4853 74.5374 32.6026 74.5374 32.7199V36.101C74.5374 36.5896 74.1302 37 73.6454 37H70.892C70.4072 37 70 36.5896 70 36.101V13.899C70 13.4104 70.4072 13 70.892 13H73.6648C74.1496 13 74.5568 13.4104 74.5568 13.899V26.1335C74.5568 26.544 75.0804 26.7394 75.3518 26.4267L80.8394 19.9381C81.0139 19.7427 81.266 19.6254 81.5181 19.6254H84.7175C85.4932 19.6254 85.9004 20.544 85.3962 21.1107L80.1025 27.228C79.9668 27.3844 79.9474 27.6189 80.0832 27.7948L85.8422 35.5733C86.2494 36.1596 85.8228 37 85.0859 37Z" fill="white"/>
<path d="M91 17.5182C90.1857 17.5182 89.4786 17.2413 88.8786 16.7073C88.2786 16.1535 88 15.5206 88 14.7492C88 13.9976 88.3 13.3449 88.8786 12.8109C89.4786 12.2769 90.1643 12 91 12C91.8357 12 92.5429 12.2769 93.1214 12.8109C93.7 13.3449 94 13.9976 94 14.7492C94 15.5008 93.7 16.1535 93.1214 16.7073C92.5643 17.2413 91.8357 17.5182 91 17.5182ZM92.5429 37H89.5C88.9643 37 88.5143 36.5847 88.5143 36.0902V20.3267C88.5143 19.8323 88.9643 19.4169 89.5 19.4169H92.5429C93.0786 19.4169 93.5286 19.8323 93.5286 20.3267V36.11C93.5286 36.6044 93.0786 37 92.5429 37Z" fill="white"/>
<path d="M102.114 36.1141C101.53 36.698 100.826 37 100 37C99.1745 37 98.4698 36.698 97.8859 36.1141C97.302 35.5302 97 34.8255 97 34C97 33.1745 97.302 32.4899 97.8859 31.8859C98.4698 31.302 99.1745 31 100 31C100.826 31 101.51 31.302 102.114 31.8859C102.698 32.4698 103 33.1745 103 34C103 34.8255 102.698 35.5302 102.114 36.1141Z" fill="white"/>
<path d="M114.612 37C110.766 37 107.662 35.9598 105.301 33.8605C104.958 33.5579 104.901 33.0662 105.167 32.7069L106.843 30.3806C107.148 29.9645 107.757 29.9078 108.138 30.2482C110.004 31.8747 112.251 32.7069 114.86 32.7069C116.155 32.7069 117.145 32.461 117.849 31.9504C118.554 31.4586 118.916 30.8345 118.916 30.1158C118.916 29.4917 118.592 28.9622 117.926 28.5461C117.259 28.13 116.421 27.8274 115.431 27.6383C114.441 27.4492 113.355 27.1844 112.194 26.844C111.032 26.5035 109.947 26.1064 108.957 25.6525C107.967 25.2175 107.129 24.5177 106.462 23.5532C105.796 22.6076 105.472 21.435 105.472 20.0733C105.472 18.0686 106.272 16.4043 107.89 15.0426C109.509 13.6809 111.661 13 114.346 13C117.735 13 120.553 13.8889 122.819 15.6856C123.2 15.9882 123.257 16.5177 122.972 16.896L121.258 19.1277C120.953 19.5059 120.401 19.5816 120.02 19.279C118.306 17.974 116.269 17.3121 113.908 17.3121C113.146 17.3121 112.518 17.4255 112.004 17.6336C111.432 17.8794 111.013 18.3333 110.766 18.8818C110.366 19.7896 110.632 20.5083 111.585 21.0567C112.251 21.435 113.089 21.7187 114.079 21.9078C115.069 22.0969 116.155 22.3617 117.297 22.721C118.459 23.0804 119.525 23.4965 120.515 23.9314C121.505 24.3853 122.343 25.0851 123.01 26.0496C123.676 27.0142 124 28.1678 124 29.5106C124 31.7423 123.2 33.539 121.601 34.9007C119.963 36.3192 117.64 37 114.612 37Z" fill="white"/>
<path d="M141.492 36.576H138.241C137.969 36.576 137.751 36.3448 137.751 36.0557V34.803C136.588 36.2677 134.881 37 132.63 37C131.177 37 129.887 36.4989 128.725 35.4968C127.581 34.4946 127 33.1071 127 31.334C127 29.4839 127.563 28.0964 128.689 27.1713C129.815 26.2463 131.122 25.7837 132.611 25.7837C134.482 25.7837 135.971 26.2463 137.042 27.1713C137.315 27.4026 137.714 27.2099 137.714 26.8244V25.5717C137.714 24.7045 137.387 23.9914 136.752 23.4711C136.098 22.9507 135.245 22.6809 134.173 22.6809C132.593 22.6809 131.177 23.2206 129.906 24.2998C129.669 24.4925 129.324 24.4347 129.161 24.1456L128.09 22.0835C127.962 21.8522 128.017 21.5824 128.199 21.409C130.051 19.8094 132.303 19 134.936 19C137.006 19 138.695 19.5011 140.021 20.5225C141.328 21.5439 142 23.2013 142 25.4946V36.0364C142 36.3448 141.764 36.576 141.492 36.576ZM134.337 33.955C135.844 33.955 136.952 33.4925 137.66 32.5867C137.714 32.5096 137.751 32.4133 137.751 32.2976V30.4861C137.751 30.3897 137.714 30.2741 137.66 30.197C136.97 29.2912 135.862 28.8287 134.337 28.8287C133.465 28.8287 132.738 29.06 132.157 29.5225C131.576 29.985 131.286 30.621 131.286 31.4304C131.286 32.2206 131.576 32.818 132.157 33.2805C132.738 33.7238 133.465 33.955 134.337 33.955Z" fill="white"/>
<path d="M150.214 37H147.786C147.359 37 147 36.5896 147 36.101V13.899C147 13.4104 147.359 13 147.786 13H150.214C150.641 13 151 13.4104 151 13.899V36.101C151 36.6091 150.641 37 150.214 37Z" fill="white"/>
<path d="M163.913 37C161.323 37 159.203 36.1713 157.514 34.5139C155.826 32.8565 155 30.6788 155 27.9807C155 25.4561 155.807 23.3169 157.439 21.5824C159.072 19.848 161.136 19 163.65 19C166.146 19 168.153 19.8672 169.692 21.6017C171.231 23.3362 172 25.6103 172 28.4433V28.5589C172 29.0407 171.606 29.4454 171.137 29.4454H159.597C159.728 30.5824 160.235 31.5268 161.079 32.2784C161.924 33.03 163.031 33.4154 164.401 33.4154C165.132 33.4154 165.939 33.2612 166.802 32.9529C167.347 32.7602 167.816 32.5289 168.21 32.2591C168.604 31.9893 169.129 32.1049 169.392 32.5096L170.349 33.955C170.611 34.3405 170.536 34.8801 170.161 35.1692C168.547 36.4026 166.465 37 163.913 37ZM167.741 26.4004C167.666 25.4368 167.29 24.5503 166.615 23.7794C165.939 22.9893 164.945 22.6039 163.631 22.6039C162.393 22.6039 161.417 22.9893 160.723 23.7602C160.029 24.531 159.635 25.4176 159.522 26.4004H167.741Z" fill="white"/>
<path d="M28.361 47C28.2584 47 28.1815 47 28.0789 46.9742L2.38551 42.5932C1.59061 42.4644 1.00084 41.7686 1.00084 40.9697C0.975198 40.1708 1.53932 39.475 2.33423 39.2946L16.8733 36.2795L5.92412 33.7282C5.1805 33.5478 4.64202 32.8778 4.64202 32.1304C4.64202 31.3573 5.15486 30.6873 5.89848 30.4811L15.1553 28.0587L8.94989 26.1774C8.25755 25.9713 7.77035 25.3012 7.77035 24.5797C7.77035 23.8323 8.25755 23.188 8.94989 22.9819L14.745 21.2295L11.3859 19.0648C10.873 18.7298 10.5653 18.137 10.6166 17.5185C10.6679 16.9 11.0525 16.3589 11.6423 16.1269L13.309 15.4311L12.7706 14.8899C12.1039 14.2457 12.0782 13.1891 12.7193 12.5191C13.3603 11.849 14.4117 11.8233 15.0784 12.4675L17.4374 14.7611C17.8477 15.1476 18.0272 15.7146 17.9246 16.2816C17.8221 16.8485 17.4374 17.3124 16.9246 17.5185L15.8476 17.9824L19.5914 20.4048C20.1298 20.7656 20.4375 21.4099 20.335 22.0541C20.2324 22.6984 19.7965 23.2396 19.1554 23.42L15.1809 24.6054L21.7966 26.6155C22.5146 26.8217 23.0018 27.4917 22.9761 28.2648C22.9505 29.038 22.4633 29.6564 21.7197 29.8626L13.309 32.0273L25.0531 34.759C25.8224 34.9394 26.3609 35.6352 26.3352 36.4083C26.3352 37.2072 25.7711 37.8772 25.0018 38.0319L11.668 40.7893L28.6174 43.6756C29.5149 43.8302 30.1303 44.7064 29.9764 45.6084C29.8738 46.4331 29.1559 47 28.361 47Z" fill="#98DC9A"/>
<path d="M14.5 8C15.8807 8 17 6.88071 17 5.5C17 4.11929 15.8807 3 14.5 3C13.1193 3 12 4.11929 12 5.5C12 6.88071 13.1193 8 14.5 8Z" fill="#EF3737"/>
<path d="M43.8022 8C45.183 8 46.3022 6.88071 46.3022 5.5C46.3022 4.11929 45.183 3 43.8022 3C42.4215 3 41.3022 4.11929 41.3022 5.5C41.3022 6.88071 42.4215 8 43.8022 8Z" fill="#EF3737"/>
<path d="M51.8022 8C53.183 8 54.3022 6.88071 54.3022 5.5C54.3022 4.11929 53.183 3 51.8022 3C50.4215 3 49.3022 4.11929 49.3022 5.5C49.3022 6.88071 50.4215 8 51.8022 8Z" fill="#EF3737"/>
</svg>
