<!-- Generated by IcoMoon.io -->
<svg version="1.1" xmlns="http://www.w3.org/2000/svg" width="1024" height="1024" viewBox="0 0 1024 1024">
<title></title>
<g id="icomoon-ignore">
</g>
<path d="M512 490.667c-28.288 0-55.42-11.238-75.426-31.241-20.003-20.006-31.241-47.136-31.241-75.426s11.238-55.421 31.241-75.425c20.006-20.004 47.138-31.242 75.426-31.242s55.42 11.238 75.426 31.242c20.002 20.004 31.241 47.135 31.241 75.425 0 14.007-2.761 27.878-8.119 40.82-5.359 12.94-13.218 24.699-23.121 34.607-9.907 9.903-21.666 17.762-34.607 23.121s-26.812 8.119-40.819 8.119zM512 85.333c-79.211 0-155.178 31.467-211.189 87.477s-87.477 131.978-87.477 211.189c0 224 298.667 554.667 298.667 554.667s298.667-330.667 298.667-554.667c0-79.212-31.467-155.178-87.479-211.189-56.009-56.011-131.977-87.477-211.187-87.477z"></path>
</svg>
