<svg width="30" height="30" viewBox="0 0 30 30" fill="none" xmlns="http://www.w3.org/2000/svg">
<path d="M15.0007 29.6663H13.6673V20.9063C12.2407 22.1997 10.334 22.9997 8.33398 22.9997C4.00065 22.9997 0.333984 19.333 0.333984 14.9997V13.6663H9.09398C7.80065 12.2397 7.00065 10.333 7.00065 8.33301C7.00065 3.99967 10.6673 0.333008 15.0007 0.333008H16.334V9.09301C17.7607 7.79967 19.6673 6.99967 21.6673 6.99967C26.0007 6.99967 29.6673 10.6663 29.6673 14.9997V16.333H20.9073C22.2007 17.7597 23.0007 19.6663 23.0007 21.6663C23.0007 25.9997 19.334 29.6663 15.0007 29.6663ZM16.334 16.5063V26.8263C18.6007 26.213 20.334 24.1063 20.334 21.6663C20.334 19.2263 18.6007 17.1197 16.334 16.5063ZM3.17398 16.333C3.78732 18.5997 5.89398 20.333 8.33398 20.333C10.774 20.333 12.8807 18.5997 13.494 16.333H3.17398ZM16.5073 13.6663H26.8273C26.214 11.3997 24.094 9.66634 21.6673 9.66634C19.2407 9.66634 17.1207 11.3997 16.5073 13.6663ZM13.6673 3.17301C11.4007 3.78634 9.66732 5.90634 9.66732 8.33301C9.66732 10.7597 11.4007 12.8797 13.6673 13.493V3.17301Z" fill="#006244"/>
</svg>
