<!-- Generated by IcoMoon.io -->
<svg version="1.1" xmlns="http://www.w3.org/2000/svg" width="1024" height="1024" viewBox="0 0 1024 1024">
<title></title>
<g id="icomoon-ignore">
</g>
<path d="M282.453 460.373c61.44 120.747 160.427 219.733 281.173 281.173l93.867-93.867c11.947-11.947 28.587-15.36 43.52-10.667 47.787 15.787 98.987 24.32 152.32 24.32 11.315 0 22.17 4.497 30.17 12.497s12.497 18.854 12.497 30.17v149.333c0 11.315-4.497 22.17-12.497 30.17s-18.854 12.497-30.17 12.497c-192.371 0-376.862-76.42-512.888-212.446s-212.445-320.517-212.445-512.887c0-11.316 4.495-22.168 12.497-30.17s18.854-12.497 30.17-12.497h149.333c11.316 0 22.168 4.495 30.17 12.497s12.497 18.854 12.497 30.17c0 53.333 8.533 104.533 24.32 152.32 4.693 14.933 1.28 31.573-10.667 43.52l-93.867 93.867z"></path>
</svg>
