<svg width="60" height="60" viewBox="0 0 60 60" fill="none" xmlns="http://www.w3.org/2000/svg">
<path d="M44.2749 15.375C43.6499 13.45 41.9749 13.025 41.1249 11.925C40.3499 10.775 40.4499 9.05 38.8249 7.875C37.1999 6.7 35.5749 7.3 34.2499 6.925C32.9249 6.55 32.0249 5 29.9999 5C27.9749 5 27.0499 6.45 25.7499 6.925C24.4499 7.4 22.8249 6.675 21.1749 7.875C19.5249 9.075 19.6499 10.775 18.8749 11.925C18.0249 13.025 16.3749 13.45 15.7249 15.375C15.0749 17.3 16.2499 18.625 16.2499 20C16.2499 21.375 14.9999 22.7 15.7249 24.625C16.4499 26.55 18.0249 26.975 18.8749 28.075C19.6499 29.225 19.5499 30.95 21.1749 32.125C22.7999 33.3 24.4249 32.7 25.7499 33.075C27.0749 33.45 27.9749 35 29.9999 35C32.0249 35 32.9499 33.55 34.2499 33.075C35.5499 32.6 37.1749 33.325 38.8249 32.125C40.4749 30.925 40.3499 29.225 41.1249 28.075C41.9749 26.975 43.6249 26.55 44.2749 24.625C44.9249 22.7 43.7499 21.375 43.7499 20C43.7499 18.625 44.9999 17.3 44.2749 15.375ZM29.9999 30C28.0221 30 26.0887 29.4135 24.4442 28.3147C22.7997 27.2159 21.518 25.6541 20.7611 23.8268C20.0043 21.9996 19.8062 19.9889 20.1921 18.0491C20.5779 16.1093 21.5303 14.3275 22.9289 12.9289C24.3274 11.5304 26.1092 10.578 28.049 10.1921C29.9888 9.8063 31.9995 10.0043 33.8268 10.7612C35.654 11.5181 37.2158 12.7998 38.3146 14.4443C39.4134 16.0888 39.9999 18.0222 39.9999 20C39.9999 22.6522 38.9464 25.1957 37.071 27.0711C35.1956 28.9464 32.6521 30 29.9999 30ZM34.2749 38.9L32.6999 47.9L30.8749 58.225L24.3499 52L16.0999 55.625L19.4249 36.875C20.8902 37.6066 22.5127 37.9672 24.1499 37.925C25.1539 38.6908 26.2891 39.2669 27.4999 39.625C28.3092 39.8769 29.1523 40.0034 29.9999 40C31.4955 40.0047 32.9674 39.626 34.2749 38.9ZM44.7999 46.95L38.3499 44.65L39.6249 37.3C40.3859 37.0342 41.1023 36.6549 41.7499 36.175L42.0499 35.925L44.7999 46.95Z" fill="#006244"/>
<path d="M35 20C35 20.9889 34.7068 21.9556 34.1574 22.7779C33.6079 23.6001 32.8271 24.241 31.9134 24.6194C30.9998 24.9978 29.9945 25.0969 29.0246 24.9039C28.0546 24.711 27.1637 24.2348 26.4645 23.5355C25.7652 22.8363 25.289 21.9454 25.0961 20.9755C24.9031 20.0055 25.0022 19.0002 25.3806 18.0866C25.759 17.173 26.3999 16.3921 27.2222 15.8427C28.0444 15.2932 29.0111 15 30 15C31.3261 15 32.5979 15.5268 33.5355 16.4645C34.4732 17.4021 35 18.6739 35 20Z" fill="#F53838"/>
</svg>
