<svg width="60" height="60" viewBox="0 0 60 60" fill="none" xmlns="http://www.w3.org/2000/svg">
<path d="M47.5 15H42.5C42.5 8 37 2.5 30 2.5C23 2.5 17.5 8 17.5 15H12.5C9.75 15 7.5 17.25 7.5 20V50C7.5 52.75 9.75 55 12.5 55H47.5C50.25 55 52.5 52.75 52.5 50V20C52.5 17.25 50.25 15 47.5 15ZM30 7.5C34.25 7.5 37.5 10.75 37.5 15H22.5C22.5 10.75 25.75 7.5 30 7.5ZM47.5 50H12.5V20H47.5V50Z" fill="#006244"/>
<path d="M30 30C25.75 30 22.5 26.75 22.5 22.5H17.5C17.5 29.5 23 35 30 35C37 35 42.5 29.5 42.5 22.5H37.5C37.5 26.75 34.25 30 30 30Z" fill="#F53838"/>
</svg>
