<svg width="16" height="25" viewBox="0 0 16 25" fill="none" xmlns="http://www.w3.org/2000/svg">
<path d="M8 20.1H9H14.5745L8 1.93792L1.42549 20.1H6.96515H7.95625L7.96511 21.0911L7.99108 23.9978C7.9911 23.9978 7.99113 23.9978 7.99115 23.9979C7.99247 23.9992 7.99365 23.9998 7.994 23.9999C7.99408 24 7.99403 23.9999 7.99396 23.9999C7.99382 23.9999 7.99425 24 7.99553 24C7.99635 24 7.99683 24 7.99704 23.9999L8 20.1ZM8 20.1V21.1M8 20.1V21.1M8 21.1V23.9978M8 21.1V23.9978M8 23.9978C7.99998 23.9978 7.99996 23.9978 7.99994 23.9978C7.99861 23.9992 7.99741 23.9998 7.99708 23.9999L8 23.9978Z" stroke="#006244" stroke-width="2"/>
</svg>
