<!-- Generated by IcoMoon.io -->
<svg version="1.1" xmlns="http://www.w3.org/2000/svg" width="1024" height="1024" viewBox="0 0 1024 1024">
<title></title>
<g id="icomoon-ignore">
</g>
<path fill="#000" d="M865.69 267.989c-13.961-49.801-41.574-89.225-82.091-117.111-51.132-35.226-109.943-47.718-160.734-55.296-70.281-10.479-133.939-11.947-194.56-4.54-56.866 6.963-99.669 18.091-138.752 36.045-76.561 35.157-122.505 92.092-136.533 169.165-6.827 37.41-11.401 71.236-14.063 103.492-6.144 74.581-0.58 140.595 17.033 201.762 17.135 59.631 47.104 102.263 91.614 130.253 11.366 7.134 25.839 12.288 39.902 17.271 7.031 2.492 13.79 4.949 19.695 7.543v120.491c0 15.77 12.766 28.535 28.535 28.535v0c7.441 0 14.575-2.901 19.9-8.090l111.172-108.134c4.847-5.53 4.847-5.53 9.83-5.632 37.99-0.751 76.8-2.219 115.371-4.301 46.729-2.56 100.864-7.066 151.859-28.331 46.66-19.49 80.725-50.415 101.171-91.887 21.333-43.281 34.031-90.18 38.775-143.326 8.329-93.457 2.389-174.558-18.125-247.91zM672.119 623.659c-11.162 18.261-27.887 30.891-47.548 39.083-14.37 6.007-29.047 4.745-43.213-1.263-118.921-50.313-212.139-129.638-273.783-243.61-12.698-23.484-21.538-49.050-31.676-73.865-2.082-5.12-1.911-11.093-2.833-16.657 0.887-40.107 31.642-62.669 62.703-69.495 11.878-2.628 22.391 1.57 31.198 10.001 24.371 23.279 43.657 50.244 58.163 80.486 6.349 13.278 3.482 25.020-7.339 34.884-2.219 2.048-4.574 3.959-6.997 5.769-24.678 18.569-28.297 32.597-15.155 60.553 22.391 47.548 59.563 79.462 107.657 99.26 12.663 5.222 24.61 2.628 34.304-7.646 1.297-1.365 2.765-2.697 3.721-4.267 18.978-31.642 46.455-28.501 71.851-10.445 16.691 11.844 32.87 24.337 49.391 36.42 25.054 18.466 24.849 35.806 9.557 60.791zM529.442 296.081c-6.383 0-12.8 0.512-19.081 1.57-10.65 1.809-20.685-5.393-22.46-16.043-1.775-10.615 5.393-20.685 16.043-22.46 8.363-1.365 16.964-2.082 25.498-2.082 84.48 0 153.225 68.745 153.225 153.225 0 8.567-0.717 17.169-2.116 25.532-1.604 9.523-9.865 16.282-19.217 16.282-1.058 0-2.15-0.068-3.243-0.273-10.615-1.809-17.783-11.844-16.009-22.46 1.058-6.212 1.57-12.629 1.57-19.046 0-63.010-51.234-114.244-114.21-114.244zM614.4 422.852c0 10.752-8.738 19.49-19.49 19.49s-19.49-8.738-19.49-19.49c0-32.256-26.249-58.505-58.505-58.505-10.752 0-19.49-8.738-19.49-19.49s8.738-19.49 19.49-19.49c53.726-0.034 97.485 43.725 97.485 97.485zM745.677 446.643c-2.048 9.079-10.069 15.189-19.012 15.189-1.434 0-2.901-0.171-4.335-0.478-10.513-2.389-17.101-12.834-14.711-23.313 2.833-12.459 4.267-25.327 4.267-38.229 0-94.822-77.141-171.998-171.998-171.998-12.937 0-25.771 1.434-38.229 4.267-10.445 2.423-20.958-4.198-23.313-14.711-2.389-10.513 4.198-20.958 14.711-23.313 15.292-3.516 31.061-5.257 46.899-5.257 116.326 0 210.978 94.652 210.978 210.978 0 15.838-1.775 31.607-5.257 46.865z"></path>
</svg>
