<!-- Generated by IcoMoon.io -->
<svg version="1.1" xmlns="http://www.w3.org/2000/svg" width="1024" height="1024" viewBox="0 0 1024 1024">
<title></title>
<g id="icomoon-ignore">
</g>
<path d="M944.886 118.185c-15.36-13.025-39.485-14.889-64.43-4.874h-0.041c-26.235 10.527-742.625 317.809-771.789 330.363-5.304 1.843-51.63 19.128-46.858 57.631 4.26 34.714 41.492 49.091 46.039 50.749l182.129 62.362c12.083 40.223 56.627 188.621 66.478 220.324 6.144 19.763 16.159 45.732 33.71 51.077 15.401 5.939 30.72 0.512 40.632-7.27l111.35-103.281 179.753 140.186 4.28 2.56c12.206 5.407 23.9 8.11 35.062 8.11 8.622 0 16.896-1.618 24.801-4.854 26.931-11.059 37.704-36.721 38.83-39.629l134.267-697.897c8.192-37.274-3.195-56.238-14.213-65.556zM450.56 639.36l-61.44 163.84-61.44-204.8 471.040-348.16-348.16 389.12z"></path>
</svg>
