<!-- Generated by IcoMoon.io -->
<svg version="1.1" xmlns="http://www.w3.org/2000/svg" width="1024" height="1024" viewBox="0 0 1024 1024">
<title></title>
<g id="icomoon-ignore">
</g>
<path d="M784.125 208.125c-72.25-72.25-168.25-112.125-270.5-112.125-210.75 0-382.375 171.5-382.375 382.25-0.125 67.375 17.5 133.125 51 191.125l-54.25 198.125 202.75-53.25c55.75 30.5 118.75 46.5 182.75 46.625h0.125c210.75 0 382.25-171.5 382.375-382.375 0-102.125-39.75-198.125-111.875-270.375zM513.625 796.25h-0.125c-57 0-113-15.375-161.75-44.25l-11.625-6.875-120.375 31.5 32.125-117.25-7.5-12c-31.875-50.625-48.625-109.125-48.625-169.125 0-175.125 142.625-317.625 318-317.625 84.875 0 164.625 33.125 224.625 93.125 60 60.125 93 139.875 93 224.75 0 175.25-142.625 317.75-317.75 317.75zM687.875 558.25c-9.5-4.75-56.5-27.875-65.25-31-8.75-3.25-15.125-4.75-21.5 4.75-6.375 9.625-24.625 31.125-30.25 37.5-5.5 6.25-11.125 7.125-20.625 2.375-9.625-4.75-40.375-14.875-76.875-47.5-28.375-25.25-47.625-56.625-53.125-66.125-5.625-9.625-0.625-14.75 4.125-19.5 4.375-4.25 9.625-11.125 14.375-16.75 4.75-5.5 6.375-9.5 9.625-15.875 3.125-6.375 1.5-12-0.875-16.75s-21.5-51.875-29.5-71c-7.75-18.625-15.625-16-21.5-16.375-5.5-0.25-11.875-0.25-18.25-0.25s-16.75 2.375-25.5 12c-8.75 9.5-33.375 32.625-33.375 79.625s34.25 92.5 39 98.875c4.75 6.25 67.375 102.75 163.25 144.125 22.75 9.875 40.5 15.75 54.375 20.125 22.875 7.25 43.75 6.25 60.25 3.875 18.375-2.75 56.5-23.125 64.5-45.5 7.875-22.25 7.875-41.375 5.5-45.375s-8.75-6.375-18.375-11.25z"></path>
</svg>
