<svg width="32" height="32" viewBox="0 0 32 32" fill="none" xmlns="http://www.w3.org/2000/svg">
<path d="M23.9999 24.6666C25.1066 24.6666 25.9999 23.7732 25.9999 22.6666C25.9999 21.5599 25.1066 20.6666 23.9999 20.6666C22.8933 20.6666 21.9999 21.5599 21.9999 22.6666C21.9999 23.7732 22.8933 24.6666 23.9999 24.6666ZM25.9999 12.6666H22.6666V15.9999H28.6132L25.9999 12.6666ZM7.99992 24.6666C9.10658 24.6666 9.99992 23.7732 9.99992 22.6666C9.99992 21.5599 9.10658 20.6666 7.99992 20.6666C6.89325 20.6666 5.99992 21.5599 5.99992 22.6666C5.99992 23.7732 6.89325 24.6666 7.99992 24.6666ZM26.6666 10.6666L30.6666 15.9999V22.6666H27.9999C27.9999 24.8799 26.2133 26.6666 23.9999 26.6666C21.7866 26.6666 19.9999 24.8799 19.9999 22.6666H11.9999C11.9999 24.8799 10.2133 26.6666 7.99992 26.6666C5.78658 26.6666 3.99992 24.8799 3.99992 22.6666H1.33325V7.99992C1.33325 6.51992 2.51992 5.33325 3.99992 5.33325H22.6666V10.6666H26.6666ZM3.99992 7.99992V19.9999H5.01325C5.74658 19.1866 6.81325 18.6666 7.99992 18.6666C9.18658 18.6666 10.2533 19.1866 10.9866 19.9999H19.9999V7.99992H3.99992Z" fill="#006244"/>
<path d="M13.3334 9.3335L18.0001 14.0002L13.3334 18.6668V15.3335H6.66675V12.6668H13.3334V9.3335Z" fill="#F53838"/>
</svg>
