<svg width="60" height="60" viewBox="0 0 60 60" fill="none" xmlns="http://www.w3.org/2000/svg">
<path d="M45 46.25C47.075 46.25 48.75 44.575 48.75 42.5C48.75 40.425 47.075 38.75 45 38.75C42.925 38.75 41.25 40.425 41.25 42.5C41.25 44.575 42.925 46.25 45 46.25ZM48.75 23.75H42.5V30H53.65L48.75 23.75ZM15 46.25C17.075 46.25 18.75 44.575 18.75 42.5C18.75 40.425 17.075 38.75 15 38.75C12.925 38.75 11.25 40.425 11.25 42.5C11.25 44.575 12.925 46.25 15 46.25ZM50 20L57.5 30V42.5H52.5C52.5 46.65 49.15 50 45 50C40.85 50 37.5 46.65 37.5 42.5H22.5C22.5 46.65 19.15 50 15 50C10.85 50 7.5 46.65 7.5 42.5H2.5V15C2.5 12.225 4.725 10 7.5 10H42.5V20H50ZM7.5 15V37.5H9.4C10.775 35.975 12.775 35 15 35C17.225 35 19.225 35.975 20.6 37.5H37.5V15H7.5Z" fill="#006244"/>
<path d="M25 17.5001L33.75 26.2501L25 35.0001V28.7501H12.5V23.7501H25V17.5001Z" fill="#F53838"/>
</svg>
